#!OML:ASF E:\motion texture\Top Level 1\Subject 1\Session 1\male.ASF
:FULLY-SPECIFIED
:DEGREES
220
root 25.293 17.5974 4.07908 34.908 -76.0443 -28.2141
lowerback 3.2731 -1.33446 0.95706
upperback 0.29366 -1.76144 -0.860794
thorax -1.58873 -0.890104 -1.3374
lowerneck -15.6729 -4.25485 -10.2777
upperneck 7.1652 -5.13281 12.9375
head 5.33861 -1.98071 5.31236
rclavicle -8.54774e-015 -2.38542e-014
rhumerus 40.8976 14.7816 -79.21
rradius 64.439
rwrist 28.4708
rhand -32.1414 -27.7313
rfingers 7.12502
rthumb -5.38523 -57.6428
lclavicle -8.54774e-015 -2.38542e-014
lhumerus 42.7099 -25.0142 93.626
lradius 53.5285
lwrist 26.5839
lhand -12.2805 40.4924
lfingers 7.12502
lthumb 13.7866 70.0156
rfemur -28.0376 0.604274 28.2253
rtibia 30.4003
rfoot -5.64987 -10.5372
rtoes 13.0434
lfemur -21.3557 -4.28892 -7.19769
ltibia 56.0035
lfoot -2.45191 -6.40567
ltoes -19.5028
221
root 25.1324 17.6088 4.07988 35.4782 -75.9993 -28.8048
lowerback 3.26331 -1.33556 1.08136
upperback 0.337578 -1.75602 -0.734287
thorax -1.53778 -0.887132 -1.27845
lowerneck -15.7513 -4.24719 -10.2581
upperneck 7.22928 -5.11587 12.8681
head 5.36634 -1.97248 5.28822
rclavicle -1.98785e-016 4.77083e-015
rhumerus 39.9899 15.0991 -79.6415
rradius 64.6575
rwrist 28.5391
rhand -31.8299 -27.6166
rfingers 7.12502
rthumb -5.08445 -57.5356
lclavicle -1.98785e-016 4.77083e-015
lhumerus 41.9602 -25.0387 94.0693
lradius 53.7461
lwrist 26.9393
lhand -12.3273 40.3774
lfingers 7.12502
lthumb 13.7415 69.9036
rfemur -27.4384 0.653013 28.5798
rtibia 30.4015
rfoot -6.08506 -10.6115
rtoes 12.9014
lfemur -22.2845 -3.94172 -7.09862
ltibia 56.4205
lfoot -2.6208 -6.0227
ltoes -19.4114
222
root 24.9725 17.62 4.08176 36.029 -75.9623 -29.3672
lowerback 3.24406 -1.33505 1.20285
upperback 0.379729 -1.74907 -0.612492
thorax -1.48337 -0.8834 -1.22306
lowerneck -15.8259 -4.23968 -10.2387
upperneck 7.29112 -5.09939 12.8003
head 5.3929 -1.96459 5.26458
rclavicle 3.12092e-014 2.38542e-014
rhumerus 39.0387 15.4368 -80.056
rradius 64.8942
rwrist 28.578
rhand -31.5258 -27.5038
rfingers 7.12502
rthumb -4.79082 -57.4296
lclavicle 3.12092e-014 2.38542e-014
lhumerus 41.1658 -25.0691 94.4926
lradius 54.0004
lwrist 27.3069
lhand -12.3574 40.2586
lfingers 7.12502
lthumb 13.7126 69.7868
rfemur -26.8255 0.698863 28.9183
rtibia 30.3624
rfoot -6.5078 -10.7033
rtoes 12.7684
lfemur -23.2017 -3.5899 -7.0272
ltibia 56.7186
lfoot -2.83666 -5.60045
ltoes -19.3194
223
root 24.8132 17.631 4.08466 36.5656 -75.9338 -29.9067
lowerback 3.21551 -1.33225 1.3216
upperback 0.419825 -1.73971 -0.495554
thorax -1.42586 -0.87846 -1.17143
lowerneck -15.8958 -4.23234 -10.2175
upperneck 7.35005 -5.08361 12.7323
head 5.41786 -1.95726 5.24049
rclavicle -1.5704e-014 -1.27222e-014
rhumerus 38.0468 15.7943 -80.4511
rradius 65.146
rwrist 28.5858
rhand -31.2329 -27.3898
rfingers 7.12502
rthumb -4.50805 -57.3219
lclavicle -1.5704e-014 -1.27222e-014
lhumerus 40.3273 -25.1051 94.8966
lradius 54.29
lwrist 27.6836
lhand -12.3701 40.1344
lfingers 7.12502
lthumb 13.7003 69.6635
rfemur -26.202 0.741816 29.242
rtibia 30.2874
rfoot -6.92323 -10.8039
rtoes 12.6188
lfemur -24.1029 -3.23508 -6.98162
ltibia 56.8935
lfoot -3.09363 -5.14043
ltoes -19.2183
224
root 24.6545 17.6416 4.08856 37.0913 -75.914 -30.4266
lowerback 3.17836 -1.32708 1.43843
upperback 0.458391 -1.72783 -0.383589
thorax -1.36514 -0.872253 -1.12413
lowerneck -15.9631 -4.22553 -10.1959
upperneck 7.40606 -5.06878 12.6656
head 5.44165 -1.95048 5.21669
rclavicle -7.55382e-015 -2.70347e-014
rhumerus 37.0207 16.1695 -80.8301
rradius 65.4115
rwrist 28.5642
rhand -30.9538 -27.2718
rfingers 7.12502
rthumb -4.23852 -57.2094
lclavicle -7.55382e-015 -2.70347e-014
lhumerus 39.4475 -25.1449 95.2813
lradius 54.6121
lwrist 28.0668
lhand -12.3609 40.0083
lfingers 7.12502
lthumb 13.7092 69.5368
rfemur -25.5702 0.781446 29.5512
rtibia 30.18
rfoot -7.33866 -10.9111
rtoes 12.424
lfemur -24.9849 -2.87984 -6.96033
ltibia 56.9422
lfoot -3.38546 -4.64503
ltoes -19.1109
225
root 24.4964 17.6518 4.09347 37.604 -75.9046 -30.9251
lowerback 3.1339 -1.31949 1.55173
upperback 0.494433 -1.7134 -0.277064
thorax -1.3029 -0.864761 -1.08068
lowerneck -16.0252 -4.21853 -10.1738
upperneck 7.45856 -5.05403 12.5998
head 5.46356 -1.94393 5.19308
rclavicle 1.98785e-015 -7.95139e-015
rhumerus 35.9623 16.5633 -81.192
rradius 65.6867
rwrist 28.5125
rhand -30.692 -27.1522
rfingers 7.12502
rthumb -3.98575 -57.0946
lclavicle 1.98785e-015 -7.95139e-015
lhumerus 38.5264 -25.1881 95.643
lradius 54.9651
lwrist 28.4576
lhand -12.3339 39.8821
lfingers 7.12502
lthumb 13.7353 69.4087
rfemur -24.9322 0.818606 29.8441
rtibia 30.043
rfoot -7.74846 -11.028
rtoes 12.1831
lfemur -25.8438 -2.5256 -6.96421
ltibia 56.8621
lfoot -3.70589 -4.11884
ltoes -18.9986
226
root 24.3389 17.6614 4.09936 38.1101 -75.9052 -31.4089
lowerback 3.08235 -1.30896 1.66329
upperback 0.528346 -1.69568 -0.17617
thorax -1.23889 -0.855613 -1.0423
lowerneck -16.0845 -4.21196 -10.1498
upperneck 7.50863 -5.04034 12.5343
head 5.48436 -1.938 5.16914
rclavicle 1.55052e-014 -1.90833e-014
rhumerus 34.877 16.9716 -81.5402
rradius 65.9705
rwrist 28.4316
rhand -30.4484 -27.0359
rfingers 7.12502
rthumb -3.7505 -56.9826
lclavicle 1.55052e-014 -1.90833e-014
lhumerus 37.5661 -25.2346 95.9831
lradius 55.3467
lwrist 28.8525
lhand -12.2866 39.7562
lfingers 7.12502
lthumb 13.7808 69.2798
rfemur -24.2903 0.853443 30.1224
rtibia 29.881
rfoot -8.14567 -11.1585
rtoes 11.9152
lfemur -26.6763 -2.17328 -6.98982
ltibia 56.6506
lfoot -4.04801 -3.56748
ltoes -18.8752
227
root 24.1819 17.6703 4.10622 38.6206 -75.9165 -31.8898
lowerback 3.02792 -1.29669 1.78663
upperback 0.55753 -1.67579 -0.0898614
thorax -1.17882 -0.845476 -1.02552
lowerneck -16.1378 -4.2035 -10.1174
upperneck 7.55712 -5.02731 12.4756
head 5.50384 -1.932 5.14598
rclavicle -2.50469e-014 -5.56597e-015
rhumerus 33.7622 17.3917 -81.8926
rradius 66.2588
rwrist 28.3231
rhand -30.2287 -26.9194
rfingers 7.12502
rthumb -3.53827 -56.8697
lclavicle -2.50469e-014 -5.56597e-015
lhumerus 36.5641 -25.2857 96.2877
lradius 55.7534
lwrist 29.2521
lhand -12.2212 39.6313
lfingers 7.12502
lthumb 13.8438 69.1506
rfemur -23.6457 0.888451 30.3879
rtibia 29.6979
rfoot -8.53168 -11.2983
rtoes 11.6225
lfemur -27.4788 -1.82339 -7.03337
ltibia 56.3081
lfoot -4.40542 -2.99487
ltoes -18.7414
228
root 24.0253 17.6785 4.11398 39.1329 -75.9384 -32.3644
lowerback 2.96815 -1.28113 1.90588
upperback 0.584151 -1.65214 -0.00703514
thorax -1.11823 -0.833415 -1.01022
lowerneck -16.1883 -4.19513 -10.0854
upperneck 7.60301 -5.01433 12.4169
head 5.52208 -1.92618 5.12286
rclavicle 4.19436e-014 1.51076e-014
rhumerus 32.6288 17.8281 -82.229
rradius 66.5511
rwrist 28.1844
rhand -30.0357 -26.8231
rfingers 7.12502
rthumb -3.35196 -56.7765
lclavicle 4.19436e-014 1.51076e-014
lhumerus 35.5256 -25.3361 96.5741
lradius 56.1854
lwrist 29.6537
lhand -12.1314 39.5071
lfingers 7.12502
lthumb 13.9304 69.0204
rfemur -23.0015 0.922806 30.6394
rtibia 29.4986
rfoot -8.9123 -11.4397
rtoes 11.3012
lfemur -28.2505 -1.47743 -7.09368
ltibia 55.8356
lfoot -4.77308 -2.40652
ltoes -18.5988
229
root 23.8692 17.686 4.12264 39.6529 -75.9706 -32.839
lowerback 2.90208 -1.26176 2.02224
upperback 0.608615 -1.62401 0.072143
thorax -1.05618 -0.819071 -0.997287
lowerneck -16.2344 -4.18664 -10.0535
upperneck 7.64409 -5.00122 12.3586
head 5.53813 -1.9205 5.09992
rclavicle -2.78299e-015 -1.66979e-014
rhumerus 31.4798 18.2762 -82.5545
rradius 66.8453
rwrist 28.0215
rhand -29.8746 -26.7487
rfingers 7.12502
rthumb -3.19638 -56.7045
lclavicle -2.78299e-015 -1.66979e-014
lhumerus 34.4529 -25.3856 96.8425
lradius 56.6409
lwrist 30.056
lhand -12.0185 39.3877
lfingers 7.12502
lthumb 14.0392 68.8935
rfemur -22.3594 0.956944 30.8782
rtibia 29.2871
rfoot -9.28355 -11.5826
rtoes 10.9741
lfemur -28.9896 -1.1361 -7.16741
ltibia 55.2356
lfoot -5.14686 -1.80952
ltoes -18.4365
230
root 23.7133 17.6927 4.13213 40.183 -76.0138 -33.3171
lowerback 2.83257 -1.23903 2.13594
upperback 0.630131 -1.59189 0.147035
thorax -0.995107 -0.802716 -0.98739
lowerneck -16.2755 -4.17793 -10.0206
upperneck 7.68099 -4.98815 12.3009
head 5.55208 -1.91502 5.07695
rclavicle 2.70347e-014 -2.38542e-015
rhumerus 30.3173 18.7348 -82.8751
rradius 67.1392
rwrist 27.8383
rhand -29.7411 -26.7029
rfingers 7.12502
rthumb -3.06742 -56.6606
lclavicle 2.70347e-014 -2.38542e-015
lhumerus 33.3451 -25.431 97.0935
lradius 57.1186
lwrist 30.4565
lhand -11.8833 39.2685
lfingers 7.12502
lthumb 14.1695 68.7652
rfemur -21.7195 0.992371 31.1043
rtibia 29.068
rfoot -9.64865 -11.7249
rtoes 10.6432
lfemur -29.6929 -0.801204 -7.2519
ltibia 54.5099
lfoot -5.51888 -1.21041
ltoes -18.2564
231
root 23.5577 17.6984 4.1424 40.7264 -76.0672 -33.8006
lowerback 2.75598 -1.2119 2.24539
upperback 0.650456 -1.55457 0.21888
thorax -0.931039 -0.783682 -0.978498
lowerneck -16.3139 -4.16918 -9.98826
upperneck 7.71298 -4.97484 12.2439
head 5.56409 -1.90956 5.05434
rclavicle -2.00773e-014 -3.49861e-014
rhumerus 29.147 19.1977 -83.1909
rradius 67.4311
rwrist 27.6366
rhand -29.6338 -26.683
rfingers 7.12502
rthumb -2.96377 -56.6421
lclavicle -2.00773e-014 -3.49861e-014
lhumerus 32.2071 -25.4732 97.329
lradius 57.6171
lwrist 30.8545
lhand -11.7256 39.1527
lfingers 7.12502
lthumb 14.3215 68.6388
rfemur -21.0847 1.02739 31.3184
rtibia 28.843
rfoot -10.0054 -11.8635
rtoes 10.3038
lfemur -30.3622 -0.474347 -7.34419
ltibia 53.6622
lfoot -5.88166 -0.619232
ltoes -18.0691
232
root 23.4023 17.7032 4.15344 41.2853 -76.1305 -34.293
lowerback 2.6751 -1.18116 2.35238
upperback 0.668769 -1.51299 0.286812
thorax -0.866482 -0.762472 -0.972361
lowerneck -16.3491 -4.15999 -9.95471
upperneck 7.74112 -4.96113 12.1866
head 5.57429 -1.90405 5.03145
rclavicle 2.88238e-014 -3.18055e-014
rhumerus 27.9693 19.6625 -83.5088
rradius 67.7198
rwrist 27.4181
rhand -29.5478 -26.6869
rfingers 7.12502
rthumb -2.88075 -56.6472
lclavicle 2.88238e-014 -3.18055e-014
lhumerus 31.0383 -25.5096 97.5481
lradius 58.1352
lwrist 31.252
lhand -11.555 39.0384
lfingers 7.12502
lthumb 14.4858 68.5127
rfemur -20.4551 1.06372 31.5211
rtibia 28.6153
rfoot -10.3553 -11.9984
rtoes 9.95703
lfemur -30.995 -0.157011 -7.44139
ltibia 52.695
lfoot -6.22969 -0.0456734
ltoes -17.889
233
root 23.247 17.707 4.16517 41.8586 -76.2015 -34.7934
lowerback 2.58974 -1.14685 2.45717
upperback 0.684611 -1.46714 0.350885
thorax -0.801785 -0.739093 -0.969048
lowerneck -16.3778 -4.15022 -9.91989
upperneck 7.76365 -4.94706 12.1296
head 5.58164 -1.89862 5.00846
rclavicle -1.09332e-014 5.56597e-015
rhumerus 26.7854 20.1247 -83.8321
rradius 68.0042
rwrist 27.1837
rhand -29.4788 -26.7172
rfingers 7.12502
rthumb -2.8141 -56.6784
lclavicle -1.09332e-014 5.56597e-015
lhumerus 29.8387 -25.5407 97.7529
lradius 58.673
lwrist 31.6517
lhand -11.3708 38.9337
lfingers 7.12502
lthumb 14.6632 68.3952
rfemur -19.8318 1.09756 31.7132
rtibia 28.3871
rfoot -10.6987 -12.1272
rtoes 9.60112
lfemur -31.5914 0.148252 -7.53999
ltibia 51.6137
lfoot -6.54787 0.504833
ltoes -17.7175
234
root 23.0917 17.7097 4.17754 42.4485 -76.2796 -35.3047
lowerback 2.49368 -1.10931 2.55747
upperback 0.704361 -1.41788 0.413365
thorax -0.726835 -0.713822 -0.965111
lowerneck -16.4079 -4.1406 -9.88639
upperneck 7.77931 -4.93229 12.0729
head 5.58706 -1.89292 4.98581
rclavicle 6.16232e-015 1.82882e-014
rhumerus 25.6093 20.5832 -84.1566
rradius 68.2832
rwrist 26.931
rhand -29.4219 -26.7725
rfingers 7.12502
rthumb -2.75918 -56.7344
lclavicle 6.16232e-015 1.82882e-014
lhumerus 28.6212 -25.5643 97.9403
lradius 59.2291
lwrist 32.054
lhand -11.1692 38.8319
lfingers 7.12502
lthumb 14.8575 68.2792
rfemur -19.2159 1.13006 31.8959
rtibia 28.1625
rfoot -11.0367 -12.2506
rtoes 9.2317
lfemur -32.1513 0.442423 -7.63797
ltibia 50.4226
lfoot -6.82318 1.02841
ltoes -17.5354
